<svg width="500" height="500" viewBox="0 0 500 500" fill="none" xmlns="http://www.w3.org/2000/svg">
<rect width="500" height="500" fill="white"/>
<path d="M372.336 145H350.748C346.676 145 343.31 148.182 342.971 152.259C336.443 230.802 310.314 265.82 233.684 295.105C231.403 295.977 229.613 297.874 228.924 300.226L222.418 322.444C220.691 328.343 226.172 333.798 232 331.919C320.669 303.327 367.71 261.719 379.951 153.525C380.465 148.977 376.893 145 372.336 145Z" fill="#1A371C"/>
<path d="M226.042 151.829C216.948 217.602 194.805 245.776 126.177 271.029C122.717 272.302 120.564 275.819 121.075 279.484L124.308 302.682C124.983 307.524 129.89 310.547 134.466 308.883C220.949 277.432 251.627 242.302 262.32 153.566C262.871 148.994 259.287 145 254.701 145H233.778C229.867 145 226.581 147.938 226.042 151.829Z" fill="#1A371C"/>
<path d="M215.221 263.083L186.902 284.835C186.902 284.835 206.161 326.39 215.221 330.966C224.282 335.542 234.852 330.966 234.852 330.966V295.118L215.221 263.083Z" fill="#1A371C"/>
</svg>
