<svg width="1973" height="482" viewBox="0 0 1973 482" fill="none" xmlns="http://www.w3.org/2000/svg">
<path d="M699.96 369L604.728 110.952H669.24L737.336 310.632L805.432 110.952H868.92L773.688 369H699.96Z" fill="black"/>
<path d="M995.536 375.144C969.936 375.144 947.408 369.683 927.952 358.76C908.496 347.496 893.307 331.795 882.384 311.656C871.461 291.517 866 268.307 866 242.024C866 214.717 871.291 190.824 881.872 170.344C892.795 149.864 907.984 133.821 927.44 122.216C947.237 110.611 970.107 104.808 996.048 104.808C1021.31 104.808 1043.32 110.44 1062.1 121.704C1080.87 132.968 1095.38 148.157 1105.62 167.272C1115.86 186.045 1120.98 207.208 1120.98 230.76C1120.98 234.173 1120.98 237.928 1120.98 242.024C1120.98 246.12 1120.63 250.387 1119.95 254.824H910.032V215.4H1059.02C1058.34 196.627 1052.03 181.949 1040.08 171.368C1028.13 160.445 1013.29 154.984 995.536 154.984C982.907 154.984 971.301 157.885 960.72 163.688C950.139 169.491 941.776 178.195 935.632 189.8C929.488 201.064 926.416 215.4 926.416 232.808V247.656C926.416 263.699 929.317 277.523 935.12 289.128C941.264 300.733 949.456 309.608 959.696 315.752C970.277 321.555 982.053 324.456 995.024 324.456C1009.36 324.456 1021.14 321.384 1030.35 315.24C1039.91 309.096 1046.91 300.904 1051.34 290.664H1113.81C1109.03 306.707 1101.18 321.213 1090.26 334.184C1079.33 346.813 1065.85 356.883 1049.81 364.392C1033.77 371.56 1015.67 375.144 995.536 375.144Z" fill="black"/>
<path d="M1259.23 369C1241.82 369 1226.63 366.269 1213.66 360.808C1201.03 355.347 1191.14 346.301 1183.97 333.672C1176.8 321.043 1173.22 303.976 1173.22 282.472V162.664H1129.18V110.952H1173.22L1180.38 42.856H1234.66V110.952H1304.8V162.664H1234.66V282.472C1234.66 295.443 1237.39 304.488 1242.85 309.608C1248.65 314.387 1258.21 316.776 1271.52 316.776H1303.26V369H1259.23Z" fill="black"/>
<path d="M1337 481.64V110.952H1391.79L1398.44 148.328C1403.91 140.819 1410.39 133.821 1417.9 127.336C1425.75 120.509 1435.14 115.048 1446.06 110.952C1457.32 106.856 1470.12 104.808 1484.46 104.808C1508.69 104.808 1530.03 110.781 1548.46 122.728C1567.23 134.675 1581.91 150.888 1592.49 171.368C1603.07 191.507 1608.36 214.547 1608.36 240.488C1608.36 266.429 1602.9 289.64 1591.98 310.12C1581.4 330.259 1566.72 346.131 1547.95 357.736C1529.52 369.341 1508.35 375.144 1484.46 375.144C1465 375.144 1447.94 371.56 1433.26 364.392C1418.92 356.883 1407.32 346.301 1398.44 332.648V481.64H1337ZM1471.66 321.896C1486 321.896 1498.8 318.483 1510.06 311.656C1521.32 304.829 1530.03 295.272 1536.17 282.984C1542.66 270.696 1545.9 256.531 1545.9 240.488C1545.9 224.104 1542.66 209.768 1536.17 197.48C1530.03 185.192 1521.32 175.635 1510.06 168.808C1498.8 161.981 1486 158.568 1471.66 158.568C1456.98 158.568 1444.01 161.981 1432.75 168.808C1421.83 175.635 1413.12 185.192 1406.64 197.48C1400.49 209.768 1397.42 223.933 1397.42 239.976C1397.42 256.36 1400.49 270.696 1406.64 282.984C1413.12 294.931 1421.83 304.488 1432.75 311.656C1444.01 318.483 1456.98 321.896 1471.66 321.896Z" fill="black"/>
<path d="M1728.42 375.144C1707.26 375.144 1689.68 371.56 1675.68 364.392C1661.69 357.224 1651.28 347.667 1644.45 335.72C1637.63 323.773 1634.21 310.803 1634.21 296.808C1634.21 280.424 1638.31 266.259 1646.5 254.312C1655.03 242.365 1667.49 233.149 1683.88 226.664C1700.26 219.837 1720.4 216.424 1744.29 216.424H1809.32C1809.32 202.771 1807.44 191.507 1803.68 182.632C1799.93 173.416 1794.13 166.589 1786.28 162.152C1778.43 157.715 1768.36 155.496 1756.07 155.496C1742.07 155.496 1730.13 158.739 1720.23 165.224C1710.33 171.368 1704.19 180.925 1701.8 193.896H1641.38C1643.43 175.464 1649.57 159.763 1659.81 146.792C1670.05 133.48 1683.53 123.24 1700.26 116.072C1717.33 108.563 1735.93 104.808 1756.07 104.808C1780.3 104.808 1800.95 109.075 1818.02 117.608C1835.09 125.8 1848.06 137.747 1856.93 153.448C1866.15 168.808 1870.76 187.411 1870.76 209.256V369H1818.53L1812.39 327.528C1808.97 334.355 1804.54 340.669 1799.08 346.472C1793.96 352.275 1787.98 357.395 1781.16 361.832C1774.33 365.928 1766.48 369.171 1757.6 371.56C1749.07 373.949 1739.34 375.144 1728.42 375.144ZM1742.24 326.504C1752.14 326.504 1760.85 324.797 1768.36 321.384C1776.21 317.629 1782.86 312.509 1788.32 306.024C1794.13 299.197 1798.56 291.688 1801.64 283.496C1804.71 275.304 1806.76 266.6 1807.78 257.384V256.36H1750.95C1739 256.36 1729.1 257.896 1721.25 260.968C1713.4 263.699 1707.77 267.795 1704.36 273.256C1700.94 278.717 1699.24 285.032 1699.24 292.2C1699.24 299.368 1700.94 305.512 1704.36 310.632C1707.77 315.752 1712.72 319.677 1719.2 322.408C1725.69 325.139 1733.37 326.504 1742.24 326.504Z" fill="black"/>
<path d="M1910.8 369V0.359985H1972.24V369H1910.8Z" fill="black"/>
<path d="M485.204 13H443.53C435.668 13 429.169 19.1446 428.515 27.0157C415.913 178.671 365.472 246.285 217.538 302.831C213.132 304.515 209.677 308.176 208.347 312.719L195.788 355.618C192.453 367.008 203.034 377.541 214.286 373.912C385.461 318.707 476.273 238.367 499.905 29.4605C500.898 20.6785 494.001 13 485.204 13Z" fill="#1A371C"/>
<path d="M202.785 26.1863C185.227 153.184 142.48 207.583 9.99363 256.344C3.31498 258.802 -0.841943 265.592 0.144218 272.669L6.38608 317.461C7.68865 326.809 17.1625 332.647 25.9962 329.434C192.952 268.706 252.175 200.876 272.819 29.5402C273.883 20.7115 266.963 13 258.111 13H217.718C210.167 13 203.823 18.6721 202.785 26.1863Z" fill="#1A371C"/>
<path d="M181.894 241L127.223 283C127.223 283 164.403 363.236 181.894 372.073C199.385 380.909 219.792 372.073 219.792 372.073V302.855L181.894 241Z" fill="#1A371C"/>
</svg>
