<svg width="259" height="188" viewBox="0 0 259 188" fill="none" xmlns="http://www.w3.org/2000/svg">
<path d="M251.336 0H229.748C225.676 0 222.31 3.18234 221.971 7.25883C215.443 85.8019 189.314 120.82 112.684 150.105C110.403 150.977 108.613 152.874 107.924 155.226L101.418 177.444C99.6909 183.343 105.172 188.798 111 186.919C199.669 158.327 246.71 116.719 258.951 8.525C259.465 3.97672 255.893 0 251.336 0Z" fill="#1A371C"/>
<path d="M105.042 6.82929C95.9477 72.6023 73.8047 100.776 5.1767 126.029C1.71716 127.302 -0.436127 130.819 0.0747048 134.484L3.30799 157.682C3.98272 162.524 8.89019 165.547 13.466 163.883C99.9493 132.432 130.627 97.3024 141.32 8.56626C141.871 3.99382 138.287 0 133.701 0H112.778C108.867 0 105.581 2.93762 105.042 6.82929Z" fill="#1A371C"/>
<path d="M94.2213 118.083L65.9016 139.835C65.9016 139.835 85.1609 181.39 94.2213 185.966C103.282 190.542 113.852 185.966 113.852 185.966V150.118L94.2213 118.083Z" fill="#1A371C"/>
</svg>
