<svg width="509" height="156" viewBox="0 0 509 156" fill="none" xmlns="http://www.w3.org/2000/svg">
<path d="M138.999 25.6243H127.06C124.808 25.6243 122.947 27.3862 122.759 29.6431C119.149 73.128 104.699 92.5155 62.3192 108.729C61.0572 109.212 60.0673 110.262 59.6863 111.564L56.0885 123.865C55.1332 127.131 58.1644 130.151 61.3878 129.111C110.425 113.281 136.441 90.2451 143.211 30.3441C143.495 27.826 141.519 25.6243 138.999 25.6243Z" fill="#1A371C"/>
<path d="M58.0928 29.4053C53.0631 65.8201 40.8171 81.4181 2.86293 95.3997C0.94966 96.1045 -0.241196 98.0513 0.0413149 100.081L1.82946 112.924C2.20261 115.604 4.91665 117.278 7.44728 116.357C55.2761 98.9443 72.2421 79.4951 78.156 30.367C78.4607 27.8355 76.4783 25.6243 73.9425 25.6243H62.371C60.2078 25.6243 58.3905 27.2507 58.0928 29.4053Z" fill="#1A371C"/>
<path d="M52.1083 91L36.4463 103.043C36.4463 103.043 47.0976 126.049 52.1083 128.583C57.1191 131.117 62.965 128.583 62.965 128.583V108.736L52.1083 91Z" fill="#1A371C"/>
<path d="M192.752 124L166.64 58.72H184.048L204.912 118.752H196.336L217.2 58.72H234.096L207.856 124H192.752ZM264.238 125.28C257.326 125.28 251.267 123.829 246.062 120.928C240.942 118.027 236.931 114.016 234.03 108.896C231.214 103.776 229.806 97.888 229.806 91.232C229.806 84.576 231.214 78.7307 234.03 73.696C236.931 68.576 240.942 64.608 246.062 61.792C251.182 58.8907 257.155 57.44 263.982 57.44C270.467 57.44 276.099 58.8053 280.878 61.536C285.657 64.1813 289.369 67.936 292.014 72.8C294.659 77.664 295.982 83.3387 295.982 89.824C295.982 91.0187 295.939 92.128 295.854 93.152C295.769 94.176 295.641 95.2 295.47 96.224H239.79V84.96H283.054L279.726 88.032C279.726 81.888 278.318 77.28 275.502 74.208C272.686 71.136 268.761 69.6 263.726 69.6C258.265 69.6 253.913 71.4773 250.67 75.232C247.513 78.9867 245.934 84.4053 245.934 91.488C245.934 98.4853 247.513 103.861 250.67 107.616C253.913 111.285 258.478 113.12 264.366 113.12C267.779 113.12 270.766 112.48 273.326 111.2C275.886 109.92 277.763 107.957 278.958 105.312H294.19C292.057 111.456 288.43 116.32 283.31 119.904C278.275 123.488 271.918 125.28 264.238 125.28ZM329.588 125.28C321.567 125.28 315.636 123.403 311.796 119.648C308.041 115.808 306.164 110.091 306.164 102.496V43.872L322.42 37.856V102.88C322.42 106.037 323.273 108.384 324.98 109.92C326.687 111.456 329.375 112.224 333.044 112.224C334.495 112.224 335.775 112.139 336.884 111.968C338.079 111.712 339.188 111.413 340.212 111.072V123.616C339.188 124.128 337.737 124.512 335.86 124.768C333.983 125.109 331.892 125.28 329.588 125.28ZM293.62 71.392V58.72H340.212V71.392H293.62ZM383.124 125.28C376.895 125.28 371.817 123.829 367.892 120.928C364.052 117.941 361.663 113.845 360.724 108.64L362.004 108.512V150.24H345.876V58.72H361.62V73.44L360.34 73.184C361.535 68.32 364.265 64.48 368.532 61.664C372.799 58.848 378.004 57.44 384.148 57.44C389.951 57.44 394.985 58.848 399.252 61.664C403.604 64.3947 406.975 68.2773 409.364 73.312C411.753 78.3467 412.948 84.2773 412.948 91.104C412.948 98.016 411.711 104.032 409.236 109.152C406.761 114.272 403.305 118.24 398.868 121.056C394.431 123.872 389.183 125.28 383.124 125.28ZM379.028 111.968C384.233 111.968 388.372 110.176 391.444 106.592C394.516 102.923 396.052 97.8027 396.052 91.232C396.052 84.6613 394.473 79.584 391.316 76C388.244 72.416 384.105 70.624 378.9 70.624C373.78 70.624 369.641 72.4587 366.484 76.128C363.327 79.712 361.748 84.7893 361.748 91.36C361.748 97.9307 363.327 103.008 366.484 106.592C369.641 110.176 373.823 111.968 379.028 111.968ZM459.555 124C459.128 122.293 458.787 120.416 458.531 118.368C458.36 116.32 458.275 113.845 458.275 110.944H457.763V79.968C457.763 76.5547 456.782 73.9947 454.819 72.288C452.942 70.496 450.04 69.6 446.115 69.6C442.275 69.6 439.203 70.3253 436.899 71.776C434.68 73.1413 433.315 75.1467 432.803 77.792H417.315C417.998 71.7333 420.899 66.8267 426.019 63.072C431.139 59.3173 438.008 57.44 446.627 57.44C455.587 57.44 462.371 59.488 466.979 63.584C471.587 67.5947 473.891 73.5253 473.891 81.376V110.944C473.891 112.992 474.019 115.083 474.275 117.216C474.616 119.349 475.086 121.611 475.683 124H459.555ZM436.899 125.28C430.328 125.28 425.08 123.659 421.155 120.416C417.315 117.088 415.395 112.651 415.395 107.104C415.395 101.131 417.571 96.3947 421.923 92.896C426.275 89.3973 432.419 87.0507 440.355 85.856L460.707 82.784V93.024L443.043 95.712C439.203 96.3093 436.302 97.376 434.339 98.912C432.462 100.448 431.523 102.581 431.523 105.312C431.523 107.787 432.419 109.707 434.211 111.072C436.003 112.352 438.478 112.992 441.635 112.992C446.243 112.992 450.083 111.84 453.155 109.536C456.227 107.232 457.763 104.416 457.763 101.088L459.555 110.944C457.848 115.637 455.032 119.221 451.107 121.696C447.267 124.085 442.531 125.28 436.899 125.28ZM483.826 124V31.84H499.954V124H483.826Z" fill="#1A371C"/>
</svg>
